<svg xmlns="http://www.w3.org/2000/svg" viewBox="0 0 671.08 145.81"><defs><style>.a{fill:#fff;}</style></defs><title>liftopia-logo-white</title><polygon class="a" points="65.83 47.42 86.67 71.75 133.81 19.16 178.88 71.76 178.88 0.04 0 0.04 0 118.74 0.04 118.74 65.83 47.42"/><rect class="a" x="198.81" width="20.35" height="118.78"/><rect class="a" x="237.54" width="20.35" height="20.68"/><rect class="a" x="237.54" y="34.36" width="20.35" height="84.42"/><path class="a" d="M354,4.5H333.63V34.36H303.09v-6c0-3.67.9-6.37,2.67-8.1s4.73-2.58,8.85-2.58a45.48,45.48,0,0,1,6.67.5V.5Q314.44,0,307.6,0a51.79,51.79,0,0,0-9.51.83A20.54,20.54,0,0,0,290.16,4a16.39,16.39,0,0,0-5.42,6.42,24.26,24.26,0,0,0-2,10.6V34.36H270.4V49.05h12.34v69.73h20.35V49.05h30.54V99.43q0,9.67,4.92,15T356,119.79a58.06,58.06,0,0,0,8.68-.59q3.84-.58,7.51-1.42V101.1l-4.59.66a29.19,29.19,0,0,1-4.42.34q-5.85,0-7.51-2.67T354,91.76V49.05h18.19V34.36H354Z"/><path class="a" d="M450,45a38.28,38.28,0,0,0-13.6-9.26,51.86,51.86,0,0,0-36.62,0A38.41,38.41,0,0,0,386.23,45a40.59,40.59,0,0,0-8.42,14,51.44,51.44,0,0,0-2.92,17.61,51.33,51.33,0,0,0,2.92,17.59,40.55,40.55,0,0,0,8.42,14,38.41,38.41,0,0,0,13.52,9.26,51.86,51.86,0,0,0,36.62,0,38.28,38.28,0,0,0,13.6-9.26,40.55,40.55,0,0,0,8.42-14,51.33,51.33,0,0,0,2.92-17.59A51.44,51.44,0,0,0,458.39,59,40.59,40.59,0,0,0,450,45ZM438.62,86.17a23.57,23.57,0,0,1-4.09,8.09,21.1,21.1,0,0,1-6.84,5.67,22.28,22.28,0,0,1-19.18,0,21,21,0,0,1-6.84-5.67,23.57,23.57,0,0,1-4.09-8.09,35.28,35.28,0,0,1,0-19.19,23.48,23.48,0,0,1,4.09-8.09,21,21,0,0,1,6.84-5.67,22.28,22.28,0,0,1,19.18,0,21.1,21.1,0,0,1,6.84,5.67A23.48,23.48,0,0,1,438.62,67a35,35,0,0,1,0,19.19Z"/><path class="a" d="M541.31,45.38a36.25,36.25,0,0,0-11.51-9.51,31.06,31.06,0,0,0-14.69-3.51,33.93,33.93,0,0,0-24,9.17h-.33V34.36H470.4V145.81h20.36v-35.2a32.89,32.89,0,0,0,9.43,7.34q5.42,2.83,14.59,2.84a32,32,0,0,0,14.94-3.51,36.13,36.13,0,0,0,11.59-9.51,44.41,44.41,0,0,0,7.51-14,54,54,0,0,0,2.67-17.18,54,54,0,0,0-2.67-17.19A44.41,44.41,0,0,0,541.31,45.38ZM529.13,85.66a25.47,25.47,0,0,1-3.33,8.27,18.07,18.07,0,0,1-6.18,5.92,21.39,21.39,0,0,1-19.1,0,18.15,18.15,0,0,1-6.09-5.92,25.26,25.26,0,0,1-3.34-8.27,41.81,41.81,0,0,1,0-18.18,25.3,25.3,0,0,1,3.34-8.26,17.17,17.17,0,0,1,15.68-8.17,18.54,18.54,0,0,1,9.51,2.25,18.16,18.16,0,0,1,6.18,5.92,25.5,25.5,0,0,1,3.33,8.26,41.81,41.81,0,0,1,0,18.18Z"/><rect class="a" x="561.57" y="34.36" width="20.35" height="84.42"/><rect class="a" x="561.57" width="20.35" height="20.68"/><path class="a" d="M669.08,114.28q-1.17-3.16-1.17-9.68V60.06q0-9-3.09-14.43a22.2,22.2,0,0,0-8.25-8.43,32,32,0,0,0-11.68-3.92,95.81,95.81,0,0,0-13.35-.92A59.9,59.9,0,0,0,618,33.87a34.32,34.32,0,0,0-11.51,4.83,25.56,25.56,0,0,0-8,8.51,24.82,24.82,0,0,0-3,12.68l20.36.83q0-7,3.34-9.84T631.54,48a26,26,0,0,1,11.35,2.26q4.67,2.25,4.67,8.42v2.5c-1.34.45-2.87.9-4.6,1.34s-3.58.89-5.58,1.34-4,.86-6.09,1.25l-5.76,1.08L617,67.9a52.76,52.76,0,0,0-9.26,2.92,32,32,0,0,0-8.25,5,23.27,23.27,0,0,0-5.93,7.68,24.19,24.19,0,0,0-2.25,10.76,26.35,26.35,0,0,0,2.25,11.09,24.89,24.89,0,0,0,6.09,8.35,26.66,26.66,0,0,0,9.1,5.25A34,34,0,0,0,620,120.79a42.68,42.68,0,0,0,27.53-9.68,18.65,18.65,0,0,0,.5,3.92,10.9,10.9,0,0,0,1.5,3.75h21.52A26.21,26.21,0,0,1,669.08,114.28ZM647.56,88.59a12,12,0,0,1-2.09,7,16.18,16.18,0,0,1-5.25,4.83,26.22,26.22,0,0,1-7,2.76,31.68,31.68,0,0,1-7.34.91,15.2,15.2,0,0,1-9.34-2.84,9,9,0,0,1-3.84-7.67q0-6,4.09-8.26a34.62,34.62,0,0,1,9.92-3.42l11.18-2.33a33.51,33.51,0,0,0,9.68-3Z"/></svg>