<svg xmlns="http://www.w3.org/2000/svg" viewBox="0 0 431 177"><defs><style>.a{fill:#fff}.b{fill:#011e41}</style></defs><path class="a" d="M0 0h431v177H0z"/><path class="b" d="M145 99a18 18 0 0 1-12-5l3-4a13 13 0 0 0 9 3c2 0 4-1 4-3 0-1-1-2-6-3-6-2-9-3-9-9 0-5 4-9 10-9a17 17 0 0 1 10 4l-3 5a13 13 0 0 0-7-3c-3 0-4 1-4 2 0 2 1 3 6 4 6 2 9 4 9 9s-4 9-10 9zm34-1l-9-12-3 3v9h-6V70h6v12l12-12h7l-11 12 12 16zm12 0V70h6v28zm45 1l-3-4a13 13 0 0 1-9 4c-5 0-9-4-9-9 0-3 2-6 5-8a10 10 0 0 1-2-5c0-4 3-8 9-8 5 0 8 3 8 7s-2 6-6 8l4 4 3-5 4 2a53 53 0 0 1-4 6l5 5zm-12-13a4 4 0 0 0-3 4c0 2 2 3 4 3a7 7 0 0 0 4-1zm3-12a3 3 0 0 0-3 3 5 5 0 0 0 2 3c2 0 4-2 4-3a3 3 0 0 0-3-3zm-82 60a18 18 0 0 1-12-5l3-4a13 13 0 0 0 9 3c2 0 4-1 4-3 0-1-1-2-6-3-6-2-9-3-9-9 0-5 4-9 10-9a17 17 0 0 1 10 4l-3 5a13 13 0 0 0-7-3c-3 0-4 1-4 2 0 2 1 3 6 4 6 2 9 4 9 9s-4 9-10 9zm36-1l-14-18v18h-6v-28h6l13 17v-17h6v28zm26 1c-9 0-15-7-15-15s6-15 15-15 15 7 15 15-6 15-15 15zm9-15a9 9 0 0 0-9-9c-5 0-9 4-9 9a9 9 0 0 0 9 9c5 0 9-4 9-9zm42 14h-6l-6-18-7 18h-5l-10-28h7l6 19 6-20h6l6 20 6-19h7zm28 0h-14v-28h14c6 0 9 2 9 7a7 7 0 0 1-4 6c4 1 6 3 6 7 0 6-4 8-11 8zm3-20c0-2-2-3-4-3h-6v6h5c3 0 5-1 5-3zm2 11c0-1-2-3-5-3h-7v7h7c3 0 5-1 5-3zm25 10c-9 0-15-7-15-15s6-15 15-15 15 7 15 15-6 15-15 15zm9-15a9 9 0 0 0-9-9c-5 0-9 4-9 9a9 9 0 0 0 9 9c5 0 9-4 9-9zm31 14l-2-6h-12l-3 6h-6l12-29h6l12 29zm-8-21l-4 9h8zm37 21l-6-9h-5v9h-7v-28h14c6 0 10 3 10 9a9 9 0 0 1-6 9l7 10zm0-19c0-2-2-4-5-4h-6v8h6c3 0 5-1 5-4zm23 19h-11v-28h11c9 0 16 6 16 14s-7 14-16 14zm9-14a8 8 0 0 0-9-9h-5v18h5c6 0 9-4 9-9z"/><path class="a" d="M7 7v149l57 14 56-14V7H7z"/><path class="b" d="M52 113h3l19-12 23 29 4 1 15 16V69H11v51l33-18 8 11z"/><path class="a" d="M102 83l-6 5 3 7-6-5-6 5 2-7-6-5h7l3-7 2 7zm-29 0l-6 5 2 7-6-5-6 5 3-7-6-5h7l2-7 3 7zm-29 0l-6 5 2 7-6-5-6 5 2-7-6-5h8l2-7 3 7z"/><path d="M49 130l19 5-13-18-5-1-7-9v13l6 10zm36 10l24 6-10-12h-4l-21-27v19l11 14z" fill="#d0cfcd"/><path d="M11 152l52 13 19-5-71-18v10zm0-27v9l86 22 19-4-105-27z" fill="#d7282f"/><path class="b" d="M109 28a35 35 0 0 0-17-5c-4 0-6 1-6 3v1c0 2 2 3 9 4 11 3 21 6 21 17 0 6-3 10-9 13a31 31 0 0 1-13 4c-9 0-19-3-25-7l5-11c5 4 14 6 20 6 4 0 6-2 6-4s-2-3-9-5c-11-2-20-6-20-16 0-7 4-12 9-15a32 32 0 0 1 13-2c14 0 21 5 22 5l-6 12zM50 12v25c0 8-3 14-11 14s-12-6-12-14V12H11v28c0 13 6 25 28 25s27-12 27-25V12zm72 2h-1v-1h2v3h-1zm4 1v-1 1l-1 1v-1l-1-1v2-3h1v1a9 9 0 0 1 0 1v-1l1-1 1 3h-1z"/></svg>